<region> lovel=1 hivel=7 amp_velcurve_7=1 sample=../samples/cymbals/cy19sizzle/brs/grb/cy19sizzle_brs_grb_001.wav
<region> lovel=8 hivel=14 amp_velcurve_14=1 sample=../samples/cymbals/cy19sizzle/brs/grb/cy19sizzle_brs_grb_002.wav
<region> lovel=15 hivel=21 amp_velcurve_21=1 sample=../samples/cymbals/cy19sizzle/brs/grb/cy19sizzle_brs_grb_003.wav
<region> lovel=22 hivel=28 amp_velcurve_28=1 sample=../samples/cymbals/cy19sizzle/brs/grb/cy19sizzle_brs_grb_004.wav
<region> lovel=29 hivel=35 amp_velcurve_35=1 sample=../samples/cymbals/cy19sizzle/brs/grb/cy19sizzle_brs_grb_005.wav
<region> lovel=36 hivel=42 amp_velcurve_42=1 sample=../samples/cymbals/cy19sizzle/brs/grb/cy19sizzle_brs_grb_006.wav
<region> lovel=43 hivel=49 amp_velcurve_49=1 sample=../samples/cymbals/cy19sizzle/brs/grb/cy19sizzle_brs_grb_007.wav
<region> lovel=50 hivel=56 amp_velcurve_56=1 sample=../samples/cymbals/cy19sizzle/brs/grb/cy19sizzle_brs_grb_008.wav
<region> lovel=57 hivel=63 amp_velcurve_63=1 sample=../samples/cymbals/cy19sizzle/brs/grb/cy19sizzle_brs_grb_009.wav
<region> lovel=64 hivel=70 amp_velcurve_70=1 sample=../samples/cymbals/cy19sizzle/brs/grb/cy19sizzle_brs_grb_010.wav
<region> lovel=71 hivel=77 amp_velcurve_77=1 sample=../samples/cymbals/cy19sizzle/brs/grb/cy19sizzle_brs_grb_011.wav
<region> lovel=78 hivel=84 amp_velcurve_84=1 sample=../samples/cymbals/cy19sizzle/brs/grb/cy19sizzle_brs_grb_012.wav
<region> lovel=85 hivel=91 amp_velcurve_91=1 sample=../samples/cymbals/cy19sizzle/brs/grb/cy19sizzle_brs_grb_013.wav
<region> lovel=92 hivel=98 amp_velcurve_98=1 sample=../samples/cymbals/cy19sizzle/brs/grb/cy19sizzle_brs_grb_014.wav
<region> lovel=99 hivel=105 amp_velcurve_105=1 sample=../samples/cymbals/cy19sizzle/brs/grb/cy19sizzle_brs_grb_015.wav
<region> lovel=106 hivel=112 amp_velcurve_112=1 sample=../samples/cymbals/cy19sizzle/brs/grb/cy19sizzle_brs_grb_016.wav
<region> lovel=113 hivel=119 amp_velcurve_119=1 sample=../samples/cymbals/cy19sizzle/brs/grb/cy19sizzle_brs_grb_017.wav
<region> lovel=120 hivel=127 amp_velcurve_127=1 sample=../samples/cymbals/cy19sizzle/brs/grb/cy19sizzle_brs_grb_018.wav
